<svg xmlns="http://www.w3.org/2000/svg" xmlns:xlink="http://www.w3.org/1999/xlink" width="1920" zoomAndPan="magnify" viewBox="0 0 1440 809.999993" height="1080" preserveAspectRatio="xMidYMid meet" version="1.0"><defs><clipPath id="68b3bc7388"><path d="M 0 0 L 487.179688 0 L 487.179688 810 L 0 810 Z M 0 0 " clip-rule="nonzero"/></clipPath></defs><g clip-path="url(#68b3bc7388)"><path fill="#ffffff" d="M 66.050781 826.117188 C 298.640625 826.117188 487.167969 637.59375 487.167969 405 C 487.167969 172.40625 298.640625 -16.121094 66.050781 -16.121094 C -166.542969 -16.121094 -355.070312 172.40625 -355.070312 405 C -355.070312 637.59375 -166.542969 826.117188 66.050781 826.117188 Z M 66.050781 818.125 C 294.210938 818.125 479.214844 633.160156 479.214844 405 C 479.214844 176.835938 294.210938 -8.125 66.050781 -8.125 C -162.113281 -8.125 -347.078125 176.835938 -347.078125 405 C -347.078125 633.160156 -162.113281 818.125 66.050781 818.125 Z M 66.050781 818.125 " fill-opacity="1" fill-rule="evenodd"/></g></svg>